<svg xmlns="http://www.w3.org/2000/svg" viewBox="0 0 137.681 27.744" height="104.859" width="520.369" xmlns:v="https://vecta.io/nano"><path d="M0 0h137.68v27.744H0z" fill="#212133"/><g transform="matrix(.264583 0 0 .264583 7.457429 6.52153)"><g fill="#fff"><path d="M66.667 25.093l6.682 11.433-6.682 11.433H53.452l-6.68-11.433 6.682-11.433h13.214m4.306-7.424H49.147L38.16 36.526l10.988 18.857h21.826L81.96 36.526zM32.072 48.107H15.145l-6.533-11.58 6.533-11.433h16.927V17.67H10.988L0 36.526l10.988 18.857h21.084zM88.05 25.093h16.778l6.682 11.433-6.682 11.58H88.05v7.276h21.084l10.84-18.857-10.84-18.857H88.05zm39.8 7.72h18.857v7.424H127.84zm0-15.144h28.657v7.424H127.84zm0 30.437h28.657v7.424H127.84z"/><path d="M135.274 17.7v37.862h-7.424V17.7zm109.57-.03h35.487v7.424h-35.487z"/><path d="M333.93 25.093l6.682 11.433-6.682 11.433h-13.215l-6.682-11.433 6.682-11.433h13.215m4.306-7.424H316.4l-10.988 18.857L316.4 55.383h21.827l10.985-18.857zm-71.932-.04v37.862h-7.424V17.63zm30.676.06v37.86h-7.424V17.7zm-89.405 37.693l16.927-37.714 5.94 4.454-14.4 33.26z"/><path d="M245.3 55.383L228.362 17.67l-5.94 4.454 14.4 33.26zM174.118 17.6v37.86h-7.424V17.6zm26.152-.02v37.86h-7.424V17.6z"/><path d="M192.875 55.383L167.04 20.936l7.127-3.267 25.687 34.447zm170.96-37.733V55.5h-7.424V17.65zm26.152-.02V55.5h-7.424V17.63z"/><path d="M382.485 55.383l-25.687-34.447 6.98-3.267 25.836 34.447zM224.502 17.67h4v4.9h-4z"/></g><path d="M428.364 35.338h-12.617l-10.1-17.67L415.747 0h32.517l-4.306 7.572h-23.76l-5.94 10.1 5.94 10.1h12.472zM455.24 0l-31.032 55.383h8.76L464 0z" fill="#7800ff"/></g></svg>